<?xml version="1.0" encoding="UTF-8" standalone="no"?>
<!-- Created with Inkscape (http://www.inkscape.org/) -->

<svg
   width="120.3527mm"
   height="118.67249mm"
   viewBox="0 0 120.35269 118.67249"
   version="1.1"
   id="svg1"
   inkscape:version="1.4.3 (0d15f75, 2025-12-25)"
   sodipodi:docname="echt-favicon.svg"
   inkscape:export-filename="echt-favicon.png"
   inkscape:export-xdpi="96"
   inkscape:export-ydpi="96"
   xmlns:inkscape="http://www.inkscape.org/namespaces/inkscape"
   xmlns:sodipodi="http://sodipodi.sourceforge.net/DTD/sodipodi-0.dtd"
   xmlns="http://www.w3.org/2000/svg"
   xmlns:svg="http://www.w3.org/2000/svg">
  <sodipodi:namedview
     id="namedview1"
     pagecolor="#ffffff"
     bordercolor="#000000"
     borderopacity="0.25"
     inkscape:showpageshadow="2"
     inkscape:pageopacity="0.0"
     inkscape:pagecheckerboard="0"
     inkscape:deskcolor="#d1d1d1"
     inkscape:document-units="mm"
     inkscape:zoom="0.66611756"
     inkscape:cx="270.97319"
     inkscape:cy="214.67682"
     inkscape:window-width="1322"
     inkscape:window-height="641"
     inkscape:window-x="0"
     inkscape:window-y="30"
     inkscape:window-maximized="0"
     inkscape:current-layer="layer1" />
  <defs
     id="defs1">
    <rect
       x="451.68774"
       y="241.69257"
       width="332.82254"
       height="453.66882"
       id="rect13" />
  </defs>
  <g
     inkscape:label="Layer 1"
     inkscape:groupmode="layer"
     id="layer1"
     transform="translate(-4.1850257,-68.810105)">
    <path
       style="opacity:0.8;fill:#ffffff;fill-opacity:1;stroke:#000000;stroke-width:0.14928;stroke-opacity:0.0349076"
       id="path12"
       sodipodi:type="arc"
       sodipodi:cx="64.361374"
       sodipodi:cy="128.14635"
       sodipodi:rx="60.101707"
       sodipodi:ry="59.2616"
       sodipodi:start="0"
       sodipodi:end="6.2809901"
       sodipodi:open="true"
       sodipodi:arc-type="arc"
       d="M 124.46308,128.14635 A 60.101707,59.2616 0 0 1 64.394358,187.40794 60.101707,59.2616 0 0 1 4.2597026,128.21139 60.101707,59.2616 0 0 1 64.262422,68.884827 60.101707,59.2616 0 0 1 124.46294,128.01626" />
    <path
       style="opacity:0.8;fill:#ffffff;fill-opacity:1;stroke:#000000;stroke-width:0.14928;stroke-opacity:0.0349076"
       id="path12-6"
       sodipodi:type="arc"
       sodipodi:cx="64.642967"
       sodipodi:cy="128.66832"
       sodipodi:rx="60.101707"
       sodipodi:ry="59.2616"
       sodipodi:start="0"
       sodipodi:end="6.2809901"
       sodipodi:open="true"
       sodipodi:arc-type="arc"
       d="M 124.74467,128.66832 A 60.101707,59.2616 0 0 1 64.675951,187.92991 60.101707,59.2616 0 0 1 4.541296,128.73337 60.101707,59.2616 0 0 1 64.544015,69.4068 60.101707,59.2616 0 0 1 124.74453,128.53823" />
    <ellipse
       style="opacity:0.8;fill:#000000;fill-opacity:1;stroke:#000000;stroke-width:0.1"
       id="path1"
       cx="37.137962"
       cy="120.17284"
       rx="7.007163"
       ry="6.656805" />
    <ellipse
       style="opacity:0.8;fill:#000000;fill-opacity:1;stroke:#000000;stroke-width:0.1"
       id="path1-2"
       cx="37.10862"
       cy="120.23322"
       rx="7.007163"
       ry="6.656805" />
    <ellipse
       style="opacity:0.8;fill:#000000;fill-opacity:1;stroke:#000000;stroke-width:0.1"
       id="path1-2-8"
       cx="36.977882"
       cy="95.216507"
       rx="7.007163"
       ry="6.656805" />
    <ellipse
       style="opacity:0.8;fill:#000000;fill-opacity:1;stroke:#000000;stroke-width:0.1"
       id="path1-2-87"
       cx="37.085938"
       cy="169.75752"
       rx="7.007163"
       ry="6.656805" />
    <ellipse
       style="opacity:0.8;fill:#000000;stroke:#000000;stroke-width:0.1"
       id="path1-0"
       cx="37.306595"
       cy="146.0724"
       rx="7.007163"
       ry="6.656805" />
    <ellipse
       style="opacity:0.8;fill:#000000;stroke:#000000;stroke-width:0.1"
       id="path1-0-9"
       cx="37.166958"
       cy="169.57867"
       rx="7.007163"
       ry="6.656805" />
    <ellipse
       style="opacity:0.8;fill:#000000;stroke:#000000;stroke-width:0.1"
       id="path1-0-9-5"
       ry="6.656805"
       rx="7.007163"
       cy="145.07901"
       cx="68.615662" />
    <ellipse
       style="opacity:0.8;fill:#000000;stroke:#000000;stroke-width:0.1"
       id="path1-0-9-5-1"
       ry="6.656805"
       rx="7.007163"
       cy="118.18087"
       cx="68.551964" />
    <ellipse
       style="opacity:0.8;fill:#000000;stroke:#000000;stroke-width:0.1"
       id="path1-0-9-5-1-5"
       ry="6.656805"
       rx="7.007163"
       cy="117.53537"
       cx="99.258362" />
    <ellipse
       style="opacity:0.8;fill:#000000;stroke:#000000;stroke-width:0.1"
       id="path1-0-9-5-1-7"
       ry="6.656805"
       rx="7.007163"
       cy="95.192726"
       cx="36.953773" />
    <ellipse
       style="opacity:0.8;fill:#000000;stroke:#000000;stroke-width:0.1"
       id="path1-0-9-5-1-8"
       ry="6.656805"
       rx="7.007163"
       cy="91.558434"
       cx="98.819809" />
    <path
       style="opacity:0.8;fill:#000000;stroke:#000000;stroke-width:0.1"
       id="path5"
       d="m 34.001448,98.236848 c 0.355279,3.470962 0.44577,6.967742 0.581752,10.453002 0.362585,8.79499 0.373833,17.59803 0.371642,26.39883 -0.09318,7.67526 0.257357,15.34382 0.625377,23.00764 0.169844,3.09982 0.07136,6.20361 0.127259,9.30534 0.0043,0.16754 0.0086,0.33507 0.01289,0.50261 0,0 3.359734,1.67001 3.359734,1.67001 v 0 c -0.03037,-0.17999 -0.06075,-0.35997 -0.09113,-0.53996 -0.545846,-3.24181 -0.834805,-6.51442 -1.115136,-9.78864 -0.290899,-3.39012 -0.662528,-6.77527 -0.903341,-10.16945 -0.209825,-2.95748 -0.325437,-5.59252 -0.392305,-8.56338 -0.03469,-1.54141 -0.03669,-3.08339 -0.05504,-4.62509 -0.0021,-8.67453 0.0034,-17.35161 0.371639,-26.02011 0.133569,-3.28728 0.214823,-6.58937 0.581752,-9.86016 z" />
    <path
       style="opacity:0.8;fill:#000000;stroke:#000000;stroke-width:0.1"
       id="path7"
       d="m 39.012688,172.80733 c 1.700654,-2.70397 4.182808,-4.80484 6.538065,-6.91074 1.027594,-0.85334 2.043409,-1.72107 3.082785,-2.56002 3.850286,-3.10781 7.803594,-6.08946 11.698182,-9.14099 4.112125,-3.22197 3.93415,-3.10614 7.945212,-6.36363 4.611995,-3.68334 8.802322,-7.84444 13.228227,-11.73912 2.318833,-2.04051 2.775503,-2.38248 5.071169,-4.26148 2.755399,-2.15324 5.615035,-4.16646 8.415914,-6.25988 1.573329,-1.15501 3.132547,-2.33154 4.621231,-3.59442 0.827587,-0.7272 1.636557,-1.4826 2.286017,-2.37635 0.1776,-0.20617 0.32828,-0.43287 0.48356,-0.65567 0,0 -3.367541,-1.95847 -3.367541,-1.95847 v 0 c -0.126767,0.23284 -0.261736,0.46057 -0.41642,0.67638 -0.563956,0.89505 -1.28479,1.67404 -2.033444,2.41752 -1.441786,1.29119 -2.993044,2.44119 -4.503687,3.64909 -2.599167,2.19686 -5.178423,4.42301 -7.663167,6.74852 -5.809856,5.52222 -11.424306,11.25774 -17.507201,16.48658 -3.481938,2.91621 -4.235329,3.60214 -7.858877,6.4112 -5.054348,3.91825 -10.284941,7.59618 -15.550671,11.22235 -2.704348,1.96738 -5.420793,3.93354 -7.876129,6.21286 z" />
    <path
       style="opacity:0.8;fill:#000000;stroke:#000000;stroke-width:0.1"
       id="path8"
       d="m 69.932769,118.8678 c 0.375552,-0.37007 0.237815,-0.22316 0.720902,-0.78576 0.42314,-0.4928 2.153534,-2.54346 2.375974,-2.79803 1.885675,-2.15808 2.25756,-2.51029 4.31296,-4.69592 4.501049,-4.63352 9.436883,-8.8082 14.339776,-13.003278 2.448401,-2.140387 5.041291,-4.090392 7.801306,-5.807022 0.237752,-0.146733 0.475506,-0.293468 0.713263,-0.440201 0,0 -3.044549,-1.943044 -3.044549,-1.943044 v 0 c -0.212482,0.163147 -0.424964,0.326295 -0.637448,0.489439 -2.522236,1.937581 -4.946965,3.994526 -7.221667,6.220757 -4.622199,4.448539 -9.289563,8.850579 -13.954371,13.254279 -1.630542,1.50845 -3.14543,2.93137 -4.808339,4.39341 -1.0883,0.95684 -2.502895,2.29033 -3.870507,2.89488 z" />
    <ellipse
       style="opacity:0.8;fill:#000000;fill-opacity:1;stroke:#000000;stroke-width:0.1"
       id="path1-2-5"
       cx="37.243496"
       cy="146.11942"
       rx="7.007163"
       ry="6.656805" />
    <ellipse
       style="opacity:0.8;fill:#000000;fill-opacity:1;stroke:#000000;stroke-width:0.1"
       id="path1-2-2"
       cx="68.550613"
       cy="145.20284"
       rx="7.007163"
       ry="6.656805" />
    <ellipse
       style="opacity:0.8;fill:#000000;fill-opacity:1;stroke:#000000;stroke-width:0.1"
       id="path1-2-58"
       cx="68.445427"
       cy="118.17569"
       rx="7.007163"
       ry="6.656805" />
    <ellipse
       style="opacity:0.8;fill:#000000;fill-opacity:1;stroke:#000000;stroke-width:0.1"
       id="path1-2-25"
       cx="99.227272"
       cy="117.38686"
       rx="7.007163"
       ry="6.656805" />
    <ellipse
       style="opacity:0.8;fill:#000000;fill-opacity:1;stroke:#000000;stroke-width:0.1"
       id="path1-2-52"
       cx="98.710022"
       cy="91.799736"
       rx="7.007163"
       ry="6.656805" />
  </g>
</svg>
